<?xml version="1.0" standalone="no"?>
<!DOCTYPE svg PUBLIC "-//W3C//DTD SVG 20010904//EN"
 "http://www.w3.org/TR/2001/REC-SVG-20010904/DTD/svg10.dtd">
<svg version="1.0" xmlns="http://www.w3.org/2000/svg"
 width="394.000000pt" height="394.000000pt" viewBox="0 0 394.000000 394.000000"
 preserveAspectRatio="xMidYMid meet">
<metadata>
Created by potrace 1.11, written by Peter Selinger 2001-2013
</metadata>
<g transform="translate(0.000000,394.000000) scale(0.100000,-0.100000)"
fill="#000000" stroke="none">
<path d="M882 2999 c-70 -35 -116 -90 -128 -154 -4 -21 -7 -103 -7 -182 0
-130 2 -146 20 -166 11 -12 44 -66 74 -119 30 -54 57 -98 62 -98 4 0 7 54 7
119 l0 120 121 0 c66 1 129 6 140 12 45 24 59 67 59 182 l0 108 233 -1 c127
-1 404 -1 615 -1 l382 1 0 105 0 105 -758 0 -759 0 -61 -31z"/>
<path d="M2213 2609 c-163 -27 -303 -129 -334 -242 -14 -53 -13 -149 2 -195
28 -87 113 -176 216 -229 53 -27 232 -88 378 -128 149 -41 229 -72 270 -104
20 -16 20 -16 2 6 -38 44 -169 95 -411 157 -76 20 -146 41 -155 47 -13 8 -13
9 5 4 11 -3 74 -19 140 -35 231 -57 328 -91 400 -141 60 -41 86 -71 80 -91 -2
-11 0 -15 6 -11 8 4 9 -4 5 -26 -4 -20 -3 -30 3 -26 6 3 7 -1 4 -9 -3 -9 -11
-13 -17 -9 -6 4 -8 0 -4 -10 9 -24 -49 -62 -138 -92 -56 -19 -80 -23 -85 -15
-5 8 -22 9 -51 4 -24 -4 -147 -8 -274 -9 -289 -3 -282 -3 -296 -18 -7 -7 -28
-11 -49 -9 -23 3 -56 -4 -84 -16 -44 -20 -54 -35 -38 -58 9 -14 77 -30 125
-30 28 1 37 -3 37 -16 0 -9 3 -18 8 -21 4 -2 1 -2 -5 -1 -26 7 -12 -26 15 -33
34 -10 484 -10 572 0 106 11 207 34 275 62 20 9 38 15 40 13 2 -2 6 -48 9
-103 11 -160 36 -219 60 -137 9 33 26 44 26 17 0 -8 8 -15 18 -15 15 0 19 8
19 43 3 222 4 229 20 223 8 -3 23 -6 34 -6 12 0 16 -5 13 -14 -8 -21 14 -30
72 -28 176 3 284 106 284 271 0 98 -31 166 -96 210 -61 42 -113 54 -247 58
l-128 3 -50 40 c-61 48 -162 97 -284 137 -95 32 -227 71 -260 77 -54 10 -184
69 -208 94 -95 99 31 213 238 214 60 0 94 -7 206 -46 160 -55 169 -56 169 -17
0 32 -56 90 -115 118 -19 9 -35 20 -35 24 0 7 72 -11 128 -32 28 -11 38 -6 45
21 4 17 -5 26 -51 49 -160 80 -340 108 -509 80z m927 -889 c0 9 3 11 8 5 4 -6
20 -12 36 -13 40 -5 76 -30 88 -61 16 -39 26 -101 18 -101 -5 0 -7 -8 -5 -17
7 -48 -64 -99 -148 -108 -23 -2 -67 -7 -98 -11 -65 -8 -68 -1 -34 71 20 45 30
187 14 216 -8 16 -3 18 48 21 32 2 61 -1 65 -7 5 -6 8 -4 8 5z m-967 -299 c30
-1 46 -5 42 -11 -4 -6 -9 -9 -13 -6 -4 2 -59 7 -122 10 -63 4 -117 10 -120 13
-3 3 33 3 80 0 47 -3 107 -6 133 -6z m120 -8 c-7 -2 -21 -2 -30 0 -10 3 -4 5
12 5 17 0 24 -2 18 -5z m44 1 c-3 -3 -12 -4 -19 -1 -8 3 -5 6 6 6 11 1 17 -2
13 -5z m40 0 c-3 -3 -12 -4 -19 -1 -8 3 -5 6 6 6 11 1 17 -2 13 -5z m40 0 c-3
-3 -12 -4 -19 -1 -8 3 -5 6 6 6 11 1 17 -2 13 -5z m528 -274 c3 -5 1 -10 -4
-10 -6 0 -11 5 -11 10 0 6 2 10 4 10 3 0 8 -4 11 -10z"/>
<path d="M617 2423 c-44 -25 -81 -53 -84 -60 -3 -8 3 -23 14 -34 19 -20 20
-19 116 37 96 56 96 56 81 80 -9 13 -24 24 -33 24 -9 0 -51 -21 -94 -47z"/>
<path d="M673 2332 c-54 -30 -83 -53 -83 -64 0 -10 28 -66 63 -125 35 -60 144
-247 242 -418 98 -170 188 -324 201 -342 13 -17 24 -37 24 -42 0 -12 154 -91
177 -91 7 0 13 12 14 28 1 15 2 38 4 52 12 87 11 103 -7 125 -10 13 -18 28
-18 34 0 7 -59 114 -131 239 -72 125 -183 317 -246 427 -127 219 -130 225
-147 225 -6 0 -48 -22 -93 -48z"/>
<path d="M1128 2192 c-20 -2 -42 -9 -48 -17 -16 -20 -3 -54 23 -60 12 -3 159
-4 327 -3 l305 3 3 38 c3 33 1 37 -20 38 -111 2 -561 3 -590 1z"/>
<path d="M1196 1988 c-14 -20 -14 -24 1 -40 15 -16 38 -18 280 -18 l264 0 -3
38 -3 37 -262 3 c-260 2 -262 2 -277 -20z"/>
<path d="M749 1853 c0 -5 0 -178 0 -386 0 -362 0 -379 20 -421 26 -52 52 -77
114 -110 l47 -26 765 0 765 0 0 103 0 104 -722 1 c-398 0 -733 1 -746 1 -13 1
-37 14 -53 30 l-29 29 0 212 0 211 -76 129 c-73 124 -83 139 -85 123z"/>
<path d="M1203 1815 c-20 -15 -11 -61 14 -67 10 -2 131 -4 268 -3 l250 0 0 40
0 40 -258 1 c-185 1 -262 -2 -274 -11z"/>
<path d="M1270 1635 c0 -3 10 -21 23 -40 l22 -35 210 2 210 3 3 38 3 37 -235
0 c-130 0 -236 -2 -236 -5z"/>
<path d="M2763 1539 c-35 -22 -46 -37 -15 -20 22 13 58 40 52 41 -3 0 -20 -10
-37 -21z"/>
<path d="M1376 1453 c-11 -12 -6 -73 7 -74 6 0 89 -1 182 -2 l170 -1 0 40 0
39 -176 2 c-97 1 -179 -1 -183 -4z"/>
</g>
</svg>
